<?xml version="1.0" encoding="UTF-8" standalone="no"?>
<svg
   xmlns:dc="http://purl.org/dc/elements/1.1/"
   xmlns:cc="http://creativecommons.org/ns#"
   xmlns:rdf="http://www.w3.org/1999/02/22-rdf-syntax-ns#"
   xmlns:svg="http://www.w3.org/2000/svg"
   xmlns="http://www.w3.org/2000/svg"
   xmlns:sodipodi="http://sodipodi.sourceforge.net/DTD/sodipodi-0.dtd"
   xmlns:inkscape="http://www.inkscape.org/namespaces/inkscape"
   width="20.046206mm"
   height="20.379738mm"
   viewBox="0 0 71.029862 72.21167"
   id="svg2"
   version="1.1"
   inkscape:version="1.0.1 (3bc2e813f5, 2020-09-07)"
   sodipodi:docname="cnilogo.svg">
  <defs
     id="defs4">
    <inkscape:path-effect
       effect="bend_path"
       id="path-effect6050"
       bendpath="M -335.753,284.505 H 40.039"
       prop_scale="1"
       is_visible="true"
       scale_y_rel="false"
       vertical="false"
       lpeversion="0"
       hide_knot="false" />
    <linearGradient
       id="linearGradient6020">
      <stop
         style="stop-color:#85b818;stop-opacity:1;"
         offset="0"
         id="stop6022" />
      <stop
         style="stop-color:#85b818;stop-opacity:0;"
         offset="1"
         id="stop6024" />
    </linearGradient>
    <inkscape:path-effect
       prop_scale="1"
       bendpath="M -147.891,122.448 H 227.901"
       id="path-effect5931"
       effect="bend_path"
       is_visible="true"
       scale_y_rel="false"
       vertical="false"
       lpeversion="0"
       hide_knot="false" />
    <inkscape:perspective
       id="perspective2533"
       inkscape:persp3d-origin="372.04727 : 350.78739 : 1"
       inkscape:vp_z="744.09454 : 526.18109 : 1"
       inkscape:vp_y="0 : 999.99999 : 0"
       inkscape:vp_x="0 : 526.18109 : 1"
       sodipodi:type="inkscape:persp3d" />
    <inkscape:perspective
       sodipodi:type="inkscape:persp3d"
       inkscape:vp_x="0 : 526.18109 : 1"
       inkscape:vp_y="0 : 999.99999 : 0"
       inkscape:vp_z="744.09454 : 526.18109 : 1"
       inkscape:persp3d-origin="372.04727 : 350.78739 : 1"
       id="perspective2579" />
    <filter
       inkscape:label="filter1"
       id="filter3357">
      <feDiffuseLighting
         id="feDiffuseLighting3359">
        <feDistantLight
           elevation="143"
           azimuth="184"
           id="feDistantLight3361" />
      </feDiffuseLighting>
    </filter>
    <filter
       inkscape:label="filter3"
       id="filter6042">
      <feDiffuseLighting
         diffuseConstant="1.59744406"
         kernelUnitLength="0.74097560975609755"
         lighting-color="#ffffff"
         surfaceScale="-120.52117157"
         id="feDiffuseLighting6044">
        <feDistantLight
           elevation="44"
           azimuth="60"
           id="feDistantLight6046" />
      </feDiffuseLighting>
    </filter>
  </defs>
  <sodipodi:namedview
     id="base"
     pagecolor="#ffffff"
     bordercolor="#666666"
     borderopacity="1.0"
     inkscape:pageopacity="0.0"
     inkscape:pageshadow="2"
     inkscape:zoom="1.8482971"
     inkscape:cx="344.54424"
     inkscape:cy="-43.273782"
     inkscape:document-units="px"
     inkscape:current-layer="layer1"
     showgrid="false"
     inkscape:window-width="1920"
     inkscape:window-height="1017"
     inkscape:window-x="-8"
     inkscape:window-y="-8"
     inkscape:window-maximized="1"
     fit-margin-top="0"
     fit-margin-left="0"
     fit-margin-right="0"
     fit-margin-bottom="0"
     inkscape:document-rotation="0"
     inkscape:pagecheckerboard="true" />
  <metadata
     id="metadata7">
    <rdf:RDF>
      <cc:Work
         rdf:about="">
        <dc:format>image/svg+xml</dc:format>
        <dc:type
           rdf:resource="http://purl.org/dc/dcmitype/StillImage" />
        <dc:title />
      </cc:Work>
    </rdf:RDF>
  </metadata>
  <g
     inkscape:label="Ebene 1"
     inkscape:groupmode="layer"
     id="layer1"
     transform="translate(-11.138918,-10.178738)">
    <path
       inkscape:connector-curvature="0"
       style="fill:#80b827;fill-opacity:1"
       d="M 46.019901,82.368794 C 35.518489,82.00822 26.098213,77.535112 19.431239,69.743471 16.35021,66.142692 13.953921,61.671985 12.604259,57.006472 c -0.791622,-2.736459 -1.245426,-5.444658 -1.425008,-8.504113 -0.08027,-1.367373 -0.03511,-4.310554 0.08579,-5.591205 0.929052,-9.8417 5.562321,-18.553892 13.102635,-24.637632 7.778111,-6.275598 18.107842,-9.0874462 28.586423,-7.781488 5.291082,0.659436 10.542022,2.595309 14.937297,5.506966 5.012148,3.320302 9.161898,8.084287 11.555408,13.265801 1.49693,3.240547 2.38506,6.644263 2.66611,10.217621 0.0737,0.936528 0.0746,3.522824 0.002,4.525047 -0.30991,4.258623 -1.49256,7.969811 -3.50648,11.003358 -0.69149,1.041577 -1.20705,1.696767 -2.00618,2.549488 -0.59659,0.636602 -1.54437,1.435043 -1.99382,1.679663 -0.75618,0.411563 -1.82781,0.407754 -2.59856,-0.0092 -0.6901,-0.373355 -1.2141,-1.157565 -1.27732,-1.911617 -0.0679,-0.809777 0.14523,-1.284224 1.01005,-2.248654 1.5515,-1.730192 2.37983,-2.983046 3.12842,-4.731785 1.37854,-3.220294 1.8707,-7.656068 1.32377,-11.931038 -0.57315,-4.479922 -2.18334,-8.245693 -5.04732,-11.804186 -2.609334,-3.242088 -5.715738,-5.729487 -9.449959,-7.566886 -3.28712,-1.617406 -6.544656,-2.532123 -10.469811,-2.939932 -1.167247,-0.121271 -4.963623,-0.14008 -6.084551,-0.03014 -3.034486,0.297612 -5.278205,0.757042 -7.811247,1.599454 -5.644047,1.87699 -10.728522,5.44211 -14.276812,10.010528 -2.172279,2.796805 -3.939522,6.212353 -4.961261,9.5886 -0.603916,1.995585 -0.955253,3.78393 -1.18998,6.057142 -0.134292,1.300591 -0.13416,4.645672 1.89e-4,5.974917 0.190989,1.888957 0.437469,3.313964 0.858059,4.960826 1.095958,4.291373 3.100068,8.201409 5.970413,11.648352 1.130652,1.35778 3.1931,3.343813 4.647643,4.47544 3.548004,2.760341 7.726901,4.664284 12.307104,5.607225 3.186397,0.655997 6.915579,0.828349 10.101865,0.466877 4.576745,-0.519209 9.179921,-2.128758 13.117282,-4.58661 1.003096,-0.626171 1.477325,-0.849358 1.943351,-0.914617 1.00303,-0.140449 2.024544,0.324931 2.592979,1.181308 0.617846,0.930821 0.653886,2.163244 0.09188,3.141781 -0.07858,0.13682 -0.341205,0.441727 -0.583612,0.677567 -0.996101,0.969125 -4.691489,2.920557 -7.62393,4.025983 -4.655174,1.754833 -9.446364,2.554365 -14.306916,2.387473 z M 35.251996,53.018477 c -1.053516,-0.09353 -2.296325,-0.425415 -3.096872,-0.827022 -0.943642,-0.473383 -1.890163,-1.263712 -2.510958,-2.0966 -0.40075,-0.537659 -0.868089,-1.485085 -1.055931,-2.140653 -0.271316,-0.9469 -0.325967,-1.392631 -0.325967,-2.658562 0,-1.654519 0.186883,-2.575825 0.762239,-3.757719 0.362886,-0.745435 0.797712,-1.33704 1.419012,-1.930636 1.289645,-1.232153 2.90164,-1.88143 5.090932,-2.050524 1.688078,-0.130383 3.467382,0.174779 4.932542,0.845962 l 0.48245,0.221008 v 1.527035 c 0,0.839867 -0.0098,1.527033 -0.02181,1.527033 -0.01198,0 -0.179071,-0.09554 -0.371289,-0.212319 -1.809019,-1.099015 -3.815406,-1.433095 -5.464763,-0.90993 -1.175382,0.372822 -2.13393,1.352125 -2.551609,2.606854 -0.408132,1.226042 -0.408132,3.040429 0,4.26647 0.308295,0.926125 1.010364,1.821967 1.77676,2.267132 1.634869,0.949634 4.110262,0.72342 6.239612,-0.570205 0.192218,-0.116779 0.359296,-0.212323 0.371289,-0.212323 0.012,0 0.02181,0.687171 0.02181,1.527035 v 1.527036 l -0.48245,0.221007 c -1.545591,0.708026 -3.3512,0.995371 -5.214997,0.829921 z m 8.931577,-7.750246 V 37.78588 h 2.152671 2.152668 l 2.712231,5.11157 2.712229,5.111568 0.01399,-5.111568 0.01399,-5.11157 h 1.836042 1.83605 v 7.482981 7.48298 l -2.172816,-0.01433 -2.172813,-0.01433 -2.692086,-5.072284 -2.692084,-5.072287 -0.01399,5.085991 -0.01399,5.085987 h -1.83605 -1.836042 v -7.48235 z m 17.21215,0 V 37.78588 h 1.918553 1.918552 v 7.482351 7.48235 h -1.918552 -1.918553 z"
       id="path2585" />
  </g>
</svg>
