<svg version="1.1" viewBox="0 0 64 50" xmlns="http://www.w3.org/2000/svg" xmlns:xlink="http://www.w3.org/1999/xlink" overflow="hidden"><g id="Hilfslinie"></g><g id="Logo"><g><path d=" M 57.426 13.512 L 57.426 37.156 C 57.426 40.535 55.669 42.088 52.491 42.088 L 43.848 42.088 C 40.671 42.088 38.914 40.535 38.914 37.156 L 38.914 13.512 L 13.581 13.512 L 13.581 0 L 6.959 0 L 6.959 13.512 L 0 13.512 L 0 20.2 L 6.959 20.2 L 6.959 37.02 C 6.959 44.252 11.822 48.709 18.513 48.709 L 21.958 48.709 L 22.093 42.022 L 18.513 42.022 C 15.338 42.022 13.581 40.333 13.581 37.02 L 13.581 20.2 L 32.292 20.2 L 32.292 37.156 C 32.292 44.318 37.293 48.709 43.847 48.709 L 52.49 48.709 C 59.046 48.709 64.045 44.318 64.045 37.156 L 64.045 13.512 L 57.426 13.512 L 57.426 13.512 Z" fill="#80b827"/><g><path d=" M 87.018 25.017 L 86.883 23.027 C 86.732 23.374 86.521 23.691 86.25 23.977 C 85.979 24.264 85.677 24.505 85.345 24.701 C 85.013 24.897 84.655 25.048 84.27 25.154 C 83.885 25.259 83.504 25.312 83.128 25.312 C 82.48 25.312 81.91 25.218 81.421 25.029 C 80.931 24.841 80.497 24.581 80.12 24.248 C 79.487 23.69 79.019 22.985 78.718 22.133 C 78.416 21.281 78.265 20.365 78.265 19.385 C 78.265 18.45 78.408 17.561 78.695 16.716 C 78.981 15.872 79.426 15.163 80.03 14.59 C 80.407 14.228 80.848 13.942 81.353 13.731 C 81.858 13.52 82.442 13.414 83.106 13.414 C 83.513 13.414 83.909 13.467 84.294 13.572 C 84.679 13.678 85.036 13.828 85.369 14.025 C 85.7 14.221 85.998 14.454 86.262 14.726 C 86.526 14.998 86.733 15.292 86.884 15.608 L 86.884 8.687 L 88.015 8.687 L 88.015 25.018 L 87.018 25.018 Z M 86.905 19.362 C 86.905 18.518 86.799 17.767 86.588 17.111 C 86.376 16.455 86.007 15.886 85.48 15.403 C 85.193 15.132 84.858 14.917 84.473 14.758 C 84.088 14.6 83.632 14.521 83.104 14.521 C 82.576 14.521 82.116 14.612 81.725 14.792 C 81.333 14.973 80.986 15.215 80.684 15.516 C 80.246 15.999 79.926 16.579 79.723 17.258 C 79.519 17.937 79.418 18.638 79.418 19.361 C 79.418 20.175 79.534 20.937 79.769 21.645 C 80.002 22.354 80.383 22.942 80.911 23.409 C 81.197 23.665 81.522 23.862 81.884 23.997 C 82.246 24.133 82.668 24.2 83.151 24.2 C 83.649 24.2 84.086 24.118 84.463 23.951 C 84.84 23.785 85.172 23.566 85.458 23.295 C 85.97 22.798 86.34 22.213 86.566 21.542 C 86.792 20.875 86.905 20.147 86.905 19.362 Z" fill="#1A1A18"/><path d=" M 101.381 19.362 C 101.381 20.327 101.26 21.187 101.019 21.94 C 100.778 22.694 100.363 23.365 99.775 23.953 C 99.383 24.345 98.912 24.67 98.361 24.926 C 97.811 25.182 97.181 25.311 96.472 25.311 C 95.763 25.311 95.134 25.183 94.583 24.926 C 94.032 24.67 93.561 24.346 93.169 23.953 C 92.581 23.365 92.166 22.694 91.925 21.94 C 91.684 21.186 91.563 20.327 91.563 19.362 C 91.563 18.397 91.683 17.538 91.925 16.784 C 92.166 16.03 92.581 15.359 93.169 14.771 C 93.561 14.379 94.032 14.055 94.583 13.798 C 95.133 13.542 95.763 13.414 96.472 13.414 C 97.18 13.414 97.81 13.542 98.361 13.798 C 98.911 14.055 99.383 14.379 99.775 14.771 C 100.363 15.359 100.777 16.03 101.019 16.784 C 101.26 17.538 101.381 18.398 101.381 19.362 Z M 100.228 19.362 C 100.228 18.624 100.145 17.93 99.979 17.281 C 99.813 16.633 99.474 16.045 98.961 15.517 C 98.659 15.216 98.305 14.974 97.898 14.793 C 97.491 14.612 97.016 14.522 96.473 14.522 C 95.93 14.522 95.455 14.613 95.048 14.793 C 94.641 14.974 94.287 15.216 93.985 15.517 C 93.472 16.045 93.133 16.633 92.967 17.281 C 92.801 17.929 92.718 18.623 92.718 19.362 C 92.718 20.101 92.8 20.795 92.967 21.443 C 93.133 22.092 93.472 22.68 93.985 23.207 C 94.286 23.509 94.641 23.75 95.048 23.93 C 95.455 24.111 95.93 24.201 96.473 24.201 C 97.016 24.201 97.491 24.111 97.898 23.93 C 98.305 23.749 98.659 23.508 98.961 23.207 C 99.474 22.679 99.813 22.091 99.979 21.443 C 100.144 20.795 100.228 20.102 100.228 19.362 Z" fill="#1A1A18"/><path d=" M 110.768 14.793 C 110.587 14.748 110.402 14.718 110.214 14.703 C 110.025 14.688 109.841 14.68 109.66 14.68 C 108.951 14.68 108.367 14.823 107.907 15.109 C 107.447 15.396 107.082 15.773 106.81 16.24 C 106.539 16.707 106.347 17.235 106.233 17.823 C 106.12 18.411 106.064 18.999 106.064 19.587 L 106.064 25.015 L 104.933 25.015 L 104.933 13.708 L 105.928 13.708 L 106.064 15.992 C 106.32 15.208 106.784 14.612 107.455 14.205 C 108.126 13.798 108.861 13.594 109.661 13.594 C 109.842 13.594 110.026 13.598 110.215 13.605 C 110.403 13.613 110.588 13.631 110.769 13.662 L 110.769 14.793 Z" fill="#1A1A18"/><path d=" M 118.956 24.904 C 118.639 24.98 118.326 25.044 118.017 25.097 C 117.708 25.15 117.395 25.176 117.078 25.176 C 116.023 25.176 115.272 24.87 114.827 24.26 C 114.382 23.649 114.16 22.854 114.16 21.874 L 114.16 14.749 L 111.898 14.749 L 111.898 13.709 L 114.16 13.709 L 114.16 10.587 L 115.291 10.316 L 115.291 13.709 L 118.797 13.709 L 118.797 14.749 L 115.291 14.749 L 115.291 21.829 C 115.291 22.161 115.317 22.466 115.37 22.745 C 115.423 23.024 115.52 23.265 115.664 23.469 C 115.807 23.672 115.999 23.831 116.241 23.944 C 116.482 24.057 116.791 24.114 117.168 24.114 C 117.47 24.114 117.767 24.095 118.061 24.057 C 118.355 24.019 118.653 23.97 118.955 23.91 L 118.955 24.904 Z" fill="#1A1A18"/><path d=" M 136.417 25.017 L 136.417 17.621 C 136.417 16.641 136.214 15.872 135.806 15.314 C 135.399 14.756 134.705 14.477 133.725 14.477 C 133.287 14.477 132.907 14.545 132.583 14.681 C 132.259 14.816 131.968 15.005 131.712 15.246 C 131.275 15.668 130.943 16.166 130.717 16.739 C 130.491 17.312 130.378 17.938 130.378 18.617 L 130.378 25.018 L 129.224 25.018 L 129.224 17.622 C 129.224 16.642 129.017 15.873 128.602 15.315 C 128.187 14.757 127.49 14.478 126.51 14.478 C 126.073 14.478 125.692 14.546 125.368 14.682 C 125.044 14.817 124.753 15.006 124.497 15.247 C 123.984 15.73 123.629 16.333 123.434 17.056 C 123.238 17.78 123.14 18.549 123.14 19.363 L 123.14 25.018 L 122.009 25.018 L 122.009 13.708 L 123.004 13.708 L 123.14 15.653 C 123.441 15.005 123.886 14.469 124.475 14.047 C 125.063 13.625 125.764 13.414 126.578 13.414 C 127.573 13.414 128.361 13.636 128.942 14.081 C 129.522 14.526 129.926 15.118 130.152 15.857 C 130.454 15.149 130.902 14.564 131.498 14.104 C 132.094 13.644 132.859 13.415 133.794 13.415 C 134.457 13.415 135.027 13.516 135.502 13.72 C 135.977 13.923 136.365 14.21 136.667 14.579 C 136.969 14.949 137.191 15.386 137.334 15.891 C 137.477 16.397 137.549 16.951 137.549 17.554 L 137.549 25.018 L 136.417 25.018 Z" fill="#1A1A18"/><path d=" M 149.559 24.995 L 149.423 22.937 C 149.257 23.299 149.042 23.627 148.778 23.921 C 148.514 24.215 148.213 24.464 147.873 24.668 C 147.533 24.872 147.168 25.026 146.776 25.132 C 146.384 25.237 145.992 25.29 145.6 25.29 C 144.288 25.29 143.296 24.921 142.626 24.182 C 141.955 23.443 141.619 22.433 141.619 21.151 L 141.619 13.687 L 142.75 13.687 L 142.75 21.083 C 142.75 22.078 142.977 22.844 143.429 23.379 C 143.882 23.914 144.628 24.182 145.668 24.182 C 146.362 24.182 146.95 24.046 147.432 23.775 C 147.914 23.504 148.303 23.142 148.597 22.689 C 148.891 22.237 149.102 21.72 149.231 21.14 C 149.359 20.56 149.423 19.96 149.423 19.342 L 149.423 13.688 L 150.554 13.688 L 150.554 24.997 L 149.559 24.997 Z" fill="#1A1A18"/><path d=" M 162.881 25.017 L 162.881 17.621 C 162.881 16.626 162.654 15.861 162.202 15.325 C 161.749 14.79 161.003 14.522 159.962 14.522 C 159.268 14.522 158.68 14.662 158.198 14.941 C 157.715 15.22 157.327 15.586 157.033 16.038 C 156.739 16.491 156.527 17.007 156.4 17.588 C 156.272 18.169 156.208 18.76 156.208 19.363 L 156.208 25.018 L 155.077 25.018 L 155.077 13.708 L 156.072 13.708 L 156.208 15.766 C 156.358 15.404 156.569 15.08 156.841 14.793 C 157.112 14.507 157.417 14.262 157.757 14.058 C 158.096 13.854 158.462 13.696 158.854 13.583 C 159.245 13.47 159.638 13.414 160.03 13.414 C 161.342 13.414 162.333 13.784 163.004 14.522 C 163.674 15.261 164.011 16.271 164.011 17.553 L 164.011 25.017 L 162.881 25.017 Z" fill="#1A1A18"/><path d=" M 176.044 25.017 L 175.908 23.027 C 175.757 23.374 175.546 23.691 175.275 23.977 C 175.003 24.264 174.701 24.505 174.37 24.701 C 174.038 24.897 173.681 25.048 173.295 25.154 C 172.911 25.259 172.53 25.312 172.153 25.312 C 171.504 25.312 170.934 25.218 170.445 25.029 C 169.955 24.841 169.521 24.581 169.144 24.248 C 168.511 23.69 168.043 22.985 167.742 22.133 C 167.44 21.281 167.29 20.365 167.29 19.385 C 167.29 18.45 167.433 17.561 167.719 16.716 C 168.005 15.872 168.451 15.163 169.054 14.59 C 169.431 14.228 169.872 13.942 170.378 13.731 C 170.883 13.52 171.467 13.414 172.131 13.414 C 172.538 13.414 172.934 13.467 173.318 13.572 C 173.703 13.678 174.061 13.828 174.393 14.025 C 174.725 14.221 175.023 14.454 175.286 14.726 C 175.55 14.998 175.757 15.292 175.908 15.608 L 175.908 8.687 L 177.039 8.687 L 177.039 25.018 L 176.044 25.018 Z M 175.931 19.362 C 175.931 18.518 175.825 17.767 175.614 17.111 C 175.403 16.455 175.033 15.886 174.506 15.403 C 174.22 15.132 173.884 14.917 173.499 14.758 C 173.115 14.6 172.658 14.521 172.131 14.521 C 171.603 14.521 171.143 14.612 170.751 14.792 C 170.359 14.973 170.012 15.215 169.71 15.516 C 169.273 15.999 168.953 16.579 168.749 17.258 C 168.546 17.937 168.444 18.638 168.444 19.361 C 168.444 20.175 168.561 20.937 168.795 21.645 C 169.029 22.354 169.409 22.942 169.937 23.409 C 170.223 23.665 170.548 23.862 170.91 23.997 C 171.271 24.133 171.694 24.2 172.177 24.2 C 172.674 24.2 173.111 24.118 173.489 23.951 C 173.865 23.785 174.197 23.566 174.484 23.295 C 174.997 22.798 175.366 22.213 175.592 21.542 C 175.818 20.875 175.931 20.147 175.931 19.362 Z" fill="#1A1A18"/></g><g><path d=" M 86.067 48.65 L 85.931 46.592 C 85.765 46.954 85.55 47.282 85.286 47.576 C 85.022 47.87 84.721 48.119 84.381 48.323 C 84.042 48.526 83.676 48.681 83.284 48.787 C 82.892 48.892 82.5 48.945 82.108 48.945 C 80.796 48.945 79.804 48.576 79.134 47.837 C 78.463 47.098 78.127 46.088 78.127 44.806 L 78.127 37.342 L 79.258 37.342 L 79.258 44.738 C 79.258 45.733 79.484 46.499 79.937 47.034 C 80.39 47.569 81.136 47.837 82.176 47.837 C 82.87 47.837 83.458 47.701 83.94 47.43 C 84.422 47.159 84.811 46.797 85.105 46.344 C 85.399 45.892 85.61 45.375 85.739 44.795 C 85.867 44.215 85.931 43.615 85.931 42.997 L 85.931 37.343 L 87.062 37.343 L 87.062 48.65 L 86.067 48.65 Z" fill="#1A1A18"/><path d=" M 99.389 48.672 L 99.389 41.276 C 99.389 40.281 99.163 39.516 98.71 38.98 C 98.258 38.445 97.511 38.177 96.471 38.177 C 95.777 38.177 95.189 38.317 94.707 38.596 C 94.224 38.875 93.836 39.241 93.542 39.693 C 93.248 40.146 93.037 40.662 92.909 41.243 C 92.781 41.824 92.717 42.415 92.717 43.018 L 92.717 48.673 L 91.586 48.673 L 91.586 37.363 L 92.581 37.363 L 92.717 39.421 C 92.867 39.059 93.079 38.735 93.35 38.448 C 93.621 38.162 93.927 37.917 94.266 37.713 C 94.605 37.509 94.971 37.351 95.363 37.238 C 95.755 37.125 96.147 37.069 96.539 37.069 C 97.851 37.069 98.842 37.439 99.513 38.177 C 100.184 38.916 100.52 39.926 100.52 41.208 L 100.52 48.672 L 99.389 48.672 Z" fill="#1A1A18"/><path d=" M 104.727 34.219 L 104.727 32.636 L 106.311 32.636 L 106.311 34.219 L 104.727 34.219 Z M 104.931 48.672 L 104.931 37.363 L 106.13 37.363 L 106.13 48.672 L 104.931 48.672 Z" fill="#1A1A18"/><path d=" M 114.453 48.672 L 113.299 48.672 L 108.821 37.363 L 110.11 37.363 L 113.91 47.066 L 117.552 37.363 L 118.751 37.363 L 114.453 48.672 Z" fill="#1A1A18"/><path d=" M 130.15 43.289 L 121.51 43.289 C 121.524 43.953 121.634 44.575 121.838 45.155 C 122.041 45.736 122.324 46.244 122.686 46.682 C 123.003 47.059 123.383 47.353 123.828 47.564 C 124.272 47.776 124.804 47.881 125.423 47.881 C 126.433 47.881 127.255 47.55 127.888 46.886 C 128.099 46.675 128.276 46.442 128.42 46.185 C 128.563 45.929 128.672 45.627 128.748 45.28 L 129.924 45.28 C 129.848 45.763 129.698 46.204 129.471 46.603 C 129.245 47.003 128.974 47.354 128.657 47.655 C 128.25 48.062 127.771 48.383 127.221 48.616 C 126.671 48.849 126.071 48.967 125.423 48.967 C 124.609 48.967 123.907 48.816 123.319 48.514 C 122.731 48.213 122.233 47.828 121.826 47.361 C 121.359 46.818 121 46.181 120.751 45.45 C 120.502 44.719 120.378 43.923 120.378 43.064 C 120.378 42.34 120.453 41.639 120.604 40.961 C 120.755 40.282 121.049 39.641 121.486 39.038 C 122.451 37.727 123.732 37.071 125.331 37.071 C 126.1 37.071 126.782 37.222 127.378 37.523 C 127.973 37.825 128.478 38.228 128.893 38.733 C 129.308 39.239 129.624 39.823 129.843 40.486 C 130.061 41.15 130.171 41.836 130.171 42.544 L 130.15 43.289 Z M 129.019 42.249 C 129.004 41.706 128.913 41.189 128.748 40.699 C 128.582 40.209 128.341 39.772 128.024 39.387 C 127.707 39.003 127.323 38.698 126.87 38.471 C 126.418 38.245 125.905 38.132 125.332 38.132 C 124.744 38.132 124.216 38.242 123.749 38.46 C 123.282 38.679 122.886 38.977 122.561 39.354 C 122.236 39.731 121.984 40.168 121.804 40.666 C 121.623 41.163 121.533 41.692 121.533 42.249 L 129.019 42.249 Z" fill="#1A1A18"/><path d=" M 139.424 38.449 C 139.243 38.404 139.058 38.374 138.87 38.359 C 138.681 38.344 138.497 38.336 138.316 38.336 C 137.607 38.336 137.023 38.479 136.563 38.765 C 136.103 39.052 135.738 39.429 135.466 39.896 C 135.195 40.363 135.003 40.891 134.889 41.479 C 134.776 42.067 134.72 42.655 134.72 43.243 L 134.72 48.671 L 133.589 48.671 L 133.589 37.363 L 134.584 37.363 L 134.72 39.647 C 134.976 38.863 135.44 38.267 136.111 37.86 C 136.782 37.453 137.517 37.249 138.317 37.249 C 138.498 37.249 138.682 37.253 138.871 37.26 C 139.059 37.268 139.244 37.286 139.425 37.317 L 139.425 38.449 Z" fill="#1A1A18"/><path d=" M 150.325 45.529 C 150.325 46.328 150.069 47.022 149.556 47.61 C 149.149 48.063 148.625 48.402 147.984 48.628 C 147.343 48.854 146.645 48.967 145.892 48.967 C 145.123 48.967 144.422 48.846 143.788 48.605 C 143.155 48.364 142.619 48.002 142.182 47.52 C 141.865 47.158 141.635 46.804 141.492 46.457 C 141.349 46.11 141.262 45.703 141.232 45.236 L 142.386 45.236 C 142.446 45.9 142.725 46.48 143.223 46.977 C 143.555 47.294 143.947 47.524 144.399 47.667 C 144.851 47.811 145.349 47.882 145.892 47.882 C 146.48 47.882 147 47.815 147.453 47.679 C 147.906 47.543 148.275 47.332 148.561 47.046 C 148.772 46.835 148.927 46.624 149.024 46.413 C 149.122 46.202 149.171 45.931 149.171 45.599 C 149.171 45.087 148.993 44.638 148.64 44.254 C 148.285 43.869 147.769 43.632 147.09 43.541 L 144.896 43.247 C 144.429 43.187 143.965 43.073 143.505 42.908 C 143.045 42.743 142.657 42.478 142.34 42.116 C 141.918 41.619 141.707 41.023 141.707 40.329 C 141.707 39.876 141.794 39.466 141.967 39.096 C 142.14 38.727 142.378 38.406 142.68 38.135 C 143.087 37.759 143.558 37.487 144.094 37.321 C 144.629 37.155 145.191 37.072 145.779 37.072 C 146.458 37.072 147.099 37.181 147.702 37.4 C 148.305 37.618 148.803 37.954 149.195 38.406 C 149.451 38.708 149.655 39.039 149.806 39.401 C 149.956 39.763 150.04 40.125 150.055 40.487 L 148.924 40.487 C 148.894 40.306 148.837 40.087 148.754 39.831 C 148.671 39.575 148.539 39.341 148.358 39.13 C 148.102 38.829 147.755 38.587 147.318 38.406 C 146.88 38.225 146.368 38.135 145.78 38.135 C 144.905 38.135 144.227 38.309 143.745 38.656 C 143.157 39.078 142.863 39.598 142.863 40.217 C 142.863 40.7 143.014 41.107 143.316 41.438 C 143.617 41.77 144.198 41.996 145.058 42.117 L 147.207 42.411 C 147.735 42.487 148.195 42.626 148.587 42.83 C 148.979 43.033 149.303 43.279 149.56 43.565 C 149.816 43.851 150.008 44.164 150.137 44.504 C 150.261 44.839 150.325 45.182 150.325 45.529 Z" fill="#1A1A18"/><path d=" M 153.786 34.219 L 153.786 32.636 L 155.37 32.636 L 155.37 34.219 L 153.786 34.219 Z M 153.99 48.672 L 153.99 37.363 L 155.189 37.363 L 155.189 48.672 L 153.99 48.672 Z" fill="#1A1A18"/><path d=" M 165.163 48.559 C 164.847 48.635 164.533 48.699 164.224 48.752 C 163.915 48.805 163.602 48.831 163.285 48.831 C 162.23 48.831 161.479 48.525 161.034 47.915 C 160.589 47.304 160.367 46.509 160.367 45.529 L 160.367 38.404 L 158.105 38.404 L 158.105 37.364 L 160.367 37.364 L 160.367 34.242 L 161.498 33.971 L 161.498 37.364 L 165.004 37.364 L 165.004 38.404 L 161.498 38.404 L 161.498 45.484 C 161.498 45.816 161.524 46.121 161.577 46.4 C 161.63 46.679 161.728 46.92 161.871 47.124 C 162.014 47.327 162.206 47.486 162.448 47.599 C 162.689 47.712 162.998 47.769 163.375 47.769 C 163.677 47.769 163.975 47.75 164.268 47.712 C 164.562 47.674 164.86 47.625 165.161 47.565 L 165.161 48.559 Z" fill="#1A1A18"/><path d=" M 171.293 51.093 C 171.007 51.831 170.618 52.401 170.128 52.8 C 169.638 53.2 169.008 53.4 168.24 53.4 C 168.013 53.4 167.81 53.392 167.628 53.377 C 167.448 53.362 167.296 53.339 167.176 53.309 C 167.026 53.279 166.905 53.241 166.815 53.196 L 166.815 52.246 C 166.965 52.276 167.124 52.299 167.29 52.314 C 167.562 52.359 167.863 52.382 168.195 52.382 C 168.738 52.382 169.167 52.223 169.484 51.907 C 169.8 51.59 170.057 51.191 170.252 50.708 L 170.976 48.853 L 166.339 37.363 L 167.561 37.363 L 171.519 47.406 L 175.319 37.363 L 176.54 37.363 L 171.293 51.093 Z" fill="#1A1A18"/></g></g></g></svg>